# Blender 3.6.2
# www.blender.org
mtllib 1.mtl
o shortbox
v 102.546799 165.000000 85.780640
v 102.546799 165.000031 252.156250
v 268.634094 165.000031 252.156250
v 268.634094 165.000000 85.780655
v 268.634094 0.000008 85.780647
v 268.634094 165.000000 85.780655
v 268.634094 165.000031 252.156250
v 268.634094 0.000023 252.156250
v 102.546799 0.000008 85.780640
v 102.546799 165.000000 85.780640
v 268.634094 165.000000 85.780655
v 268.634094 0.000008 85.780647
v 102.546799 0.000023 252.156250
v 102.546799 165.000031 252.156250
v 102.546799 165.000000 85.780640
v 102.546799 0.000008 85.780640
v 268.634094 0.000023 252.156250
v 268.634094 165.000031 252.156250
v 102.546799 165.000031 252.156250
v 102.546799 0.000023 252.156250
vn -0.0000 1.0000 -0.0000
vn 1.0000 -0.0000 -0.0000
vn -0.0000 -0.0000 -1.0000
vn -1.0000 -0.0000 -0.0000
vn -0.0000 -0.0000 1.0000
s 0
f 1//1 2//1 3//1
f 1//1 3//1 4//1
f 5//2 6//2 7//2
f 5//2 7//2 8//2
f 9//3 10//3 11//3
f 9//3 11//3 12//3
f 13//4 14//4 15//4
f 13//4 15//4 16//4
f 17//5 18//5 19//5
f 17//5 19//5 20//5
